<svg xmlns="http://www.w3.org/2000/svg" width="311.113" height="653.462" viewBox="0 0 311.113 653.462">
  <g id="Group_21" data-name="Group 21" transform="translate(2 -119.667)" style="isolation: isolate">
    <path id="Path_7" data-name="Path 7" d="M-2,119.667s253.352,201.225,277.514,219.4,48.3,37.925,22.533,68.785S-2,773.129-2,773.129V119.667Z" transform="translate(0)" fill="#212121"/>
    <g id="icon" transform="translate(70.724 464.309) rotate(42)">
      <path id="Path_3" data-name="Path 3" d="M21.742,90.909c6.034,0,11.191-6.9,14.024-11.663C38.6,84,43.743,90.909,49.777,90.909c10.389,0,21.739-11.206,21.739-27.856,0-18.358-13.965-28.935-22.684-40.407-4.117-5.421-7.518-12.74-10.786-18.963C37.5,2.642,36.709,0,35.864,0H35.7c-.845,0-1.667,2.642-2.219,3.682C30.2,9.9,24.108,20.341,19.991,25.762,11.269,37.234,0,43.827,0,62.189,0,78.845,11.346,90.909,21.742,90.909Z" transform="translate(0 0)" fill="#030104"/>
      <path id="Path_4" data-name="Path 4" d="M0,31.473a61.862,61.862,0,0,1,21.563,0C14.431,20.747,10.781,0,10.781,0S7.188,20.747,0,31.473Z" transform="translate(24.978 72.774)" fill="#030104"/>
    </g>
    <path id="Subtraction_1" data-name="Subtraction 1" d="M40.026,145.578h0L0,145.576V130.158H9.784L44.178,0H63.449L87.167,130.158h9.786v15.416l-39.73,0V130.158H71.751l-5.338-23.422H35.282l-7.413,23.422H40.026v15.42ZM53.366,29.351h0L38.84,91.319h25.2L53.368,29.352Z" transform="matrix(0.777, 0.629, -0.629, 0.777, 173.799, 329.527)"/>
  </g>
</svg>
