<svg xmlns="http://www.w3.org/2000/svg" width="20" height="19" viewBox="0 0 20 19">
    <path fill="#FFF" fill-rule="evenodd" d="M8.973 0c.36 0 .696.105 1.01.314.314.21.546.509.696.898l4.803 11.448c.09.24.135.493.135.763a2.25 2.25 0 0 1-.337 1.01 1.73 1.73 0 0 1-.83.696l-7.093 2.918a1.34 1.34 0 0 1-.763.134c-.36 0-.696-.104-1.01-.314a1.86 1.86 0 0 1-.696-.853L.129 5.567c-.18-.51-.172-.995.023-1.46.194-.463.531-.815 1.01-1.054L8.21.135C8.45.045 8.704 0 8.973 0zm3.322 0h1.392c.539 0 .987.187 1.347.561.359.374.553.83.583 1.37v6.06L12.295 0zm5.208 1.481l1.302.54c.508.209.86.553 1.055 1.032.194.479.187.957-.023 1.436l-2.334 5.612V1.48zm-8.53.404L1.88 4.848 6.64 16.341l7.093-2.963L8.973 1.885zM6.55 6.015L9.602 8.35l-.404 3.816L6.1 9.876l.449-3.86z"/>
</svg>
