<svg xmlns="http://www.w3.org/2000/svg" width="20" height="20" viewBox="0 0 20 20">
    <path fill="#FFF" fill-rule="evenodd" d="M18.993 8.993c.272 0 .507.1.707.3.2.2.3.435.3.707 0 .272-.1.508-.3.707-.2.2-.435.3-.707.3h-1.08a8.08 8.08 0 0 1-1.186 3.274 7.768 7.768 0 0 1-2.446 2.446 8.08 8.08 0 0 1-3.274 1.187v1.079c0 .272-.1.507-.3.707-.2.2-.435.3-.707.3a.968.968 0 0 1-.707-.3c-.2-.2-.3-.435-.3-.707v-1.08a8.08 8.08 0 0 1-3.274-1.186 7.768 7.768 0 0 1-2.446-2.446 8.08 8.08 0 0 1-1.187-3.274H1.007a.968.968 0 0 1-.707-.3c-.2-.2-.3-.435-.3-.707 0-.272.1-.508.3-.707.2-.2.435-.3.707-.3h1.08a8.08 8.08 0 0 1 1.186-3.274A7.768 7.768 0 0 1 5.72 3.273a8.08 8.08 0 0 1 3.274-1.187V1.007c0-.272.1-.507.3-.707.2-.2.435-.3.707-.3.272 0 .508.1.707.3.2.2.3.435.3.707v1.08a8.08 8.08 0 0 1 3.274 1.186 7.768 7.768 0 0 1 2.446 2.446 8.08 8.08 0 0 1 1.187 3.274h1.079zM10 15.995c1.087 0 2.09-.268 3.01-.803a5.953 5.953 0 0 0 2.182-2.182c.535-.92.803-1.923.803-3.01 0-1.087-.268-2.09-.803-3.01a5.953 5.953 0 0 0-2.182-2.182A5.873 5.873 0 0 0 10 4.005c-1.087 0-2.09.268-3.01.803A5.953 5.953 0 0 0 4.808 6.99 5.873 5.873 0 0 0 4.005 10c0 1.087.268 2.09.803 3.01a5.953 5.953 0 0 0 2.182 2.182c.92.535 1.923.803 3.01.803zm0-8.993c.544 0 1.043.136 1.499.408.455.272.82.636 1.09 1.091.273.456.409.955.409 1.499 0 .544-.136 1.043-.408 1.499-.272.455-.636.82-1.091 1.09a2.872 2.872 0 0 1-1.499.409 2.872 2.872 0 0 1-1.499-.408 3.101 3.101 0 0 1-1.09-1.091A2.872 2.872 0 0 1 7.001 10c0-.544.136-1.043.408-1.499.272-.455.636-.82 1.091-1.09A2.872 2.872 0 0 1 10 7.001zm0 4.005c.272 0 .508-.1.707-.3.2-.2.3-.435.3-.707 0-.272-.1-.508-.3-.707-.2-.2-.435-.3-.707-.3-.272 0-.508.1-.707.3-.2.2-.3.435-.3.707 0 .272.1.508.3.707.2.2.435.3.707.3z"/>
</svg>
