<svg xmlns="http://www.w3.org/2000/svg" width="20" height="20" viewBox="0 0 20 20">
    <path fill="#FFF" fill-rule="evenodd" d="M20 10c-.085 2.837-1.064 5.191-2.936 7.064C15.19 18.936 12.837 19.914 10 20c-2.837-.085-5.191-1.064-7.064-2.936C1.064 15.19.086 12.837 0 10c.085-2.837 1.064-5.191 2.936-7.064C4.81 1.064 7.163.086 10 0c2.837.085 5.191 1.064 7.064 2.936C18.936 4.81 19.914 7.163 20 10zm-8.75-6.75c.96.121 1.843.44 2.652.955A7.135 7.135 0 0 1 15.98 6.25l1.521-1a9.366 9.366 0 0 0-2.714-2.727A8.124 8.124 0 0 0 11.25 1.25v2zm-8.75 2l1.521 1a7.135 7.135 0 0 1 2.077-2.045A6.359 6.359 0 0 1 8.75 3.25v-2a8.124 8.124 0 0 0-3.536 1.273A9.366 9.366 0 0 0 2.5 5.25zm-.402 8.5l1.652-.905A6.823 6.823 0 0 1 3.125 10c0-.977.208-1.925.625-2.845L2.098 6.25A8.742 8.742 0 0 0 1.25 10c0 1.293.283 2.543.848 3.75zm6.652 3a6.359 6.359 0 0 1-2.652-.955A7.135 7.135 0 0 1 4.02 13.75l-1.521 1a9.366 9.366 0 0 0 2.714 2.727A8.124 8.124 0 0 0 8.75 18.75v-2zm8.75-1.99l-1.521-1.01a7.167 7.167 0 0 1-2.077 2.064 6.322 6.322 0 0 1-2.652.964v1.972a8.352 8.352 0 0 0 3.516-1.261c1.082-.689 1.994-1.598 2.734-2.73zm.402-1.01A8.742 8.742 0 0 0 18.75 10a8.742 8.742 0 0 0-.848-3.75l-1.652.905c.417.92.625 1.868.625 2.845 0 .977-.208 1.925-.625 2.845l1.652.905zM12.5 9.375L10 5 7.5 9.375 10 13.75l2.5-4.375z"/>
</svg>
