<svg xmlns="http://www.w3.org/2000/svg" width="20" height="20" viewBox="0 0 20 20">
    <path fill="#FFF" fill-rule="evenodd" d="M10 0c1.807 0 3.485.456 5.036 1.367a9.708 9.708 0 0 1 3.597 3.597A9.767 9.767 0 0 1 20 10a9.767 9.767 0 0 1-1.367 5.036 9.708 9.708 0 0 1-3.597 3.597A9.767 9.767 0 0 1 10 20a9.767 9.767 0 0 1-5.036-1.367 9.708 9.708 0 0 1-3.597-3.597A9.767 9.767 0 0 1 0 10c0-1.807.456-3.485 1.367-5.036a9.708 9.708 0 0 1 3.597-3.597A9.767 9.767 0 0 1 10 0zm0 17.986c1.055 0 2.074-.2 3.058-.6.983-.4 1.85-.975 2.601-1.727a7.951 7.951 0 0 0 1.74-2.601 7.908 7.908 0 0 0 .61-3.058c0-1.439-.36-2.782-1.079-4.029a7.821 7.821 0 0 0-2.877-2.853 7.691 7.691 0 0 0-4.017-1.104 7.95 7.95 0 0 0-4.04 1.08A7.877 7.877 0 0 0 3.14 5.947a7.817 7.817 0 0 0-1.103 4.041c0 1.447.36 2.786 1.08 4.017a7.821 7.821 0 0 0 2.853 2.877A7.795 7.795 0 0 0 10 17.986zm3.118-7.362h-.024a.984.984 0 0 1 .42.48c.087.207.1.423.035.647a1.014 1.014 0 0 1-.36.54.955.955 0 0 1-.6.203c-.175 0-.343-.04-.503-.12l-2.59-1.51-.096-.097-.167-.12a2.664 2.664 0 0 1-.096-.155 1.238 1.238 0 0 1-.084-.18.543.543 0 0 1-.036-.192V5.012a.96.96 0 0 1 .336-.612.973.973 0 0 1 .659-.251c.248 0 .468.084.66.251a.96.96 0 0 1 .335.612v4.412l2.11 1.2z"/>
</svg>
