<?xml version="1.0" standalone="no"?>
<!DOCTYPE svg PUBLIC "-//W3C//DTD SVG 20010904//EN"
 "http://www.w3.org/TR/2001/REC-SVG-20010904/DTD/svg10.dtd">
<svg version="1.0" xmlns="http://www.w3.org/2000/svg"
 width="700.000000pt" height="700.000000pt" viewBox="0 0 700.000000 700.000000"
 preserveAspectRatio="xMidYMid meet">
<metadata>
Created by potrace 1.11, written by Peter Selinger 2001-2013
</metadata>
<g transform="translate(0.000000,700.000000) scale(0.100000,-0.100000)"
fill="#000000" stroke="none">
<path d="M3278 6996 c-1 -2 -41 -6 -88 -10 -87 -7 -105 -9 -225 -27 -116 -18
-123 -19 -192 -35 -154 -34 -203 -47 -313 -81 -155 -47 -330 -118 -502 -203
-184 -90 -226 -114 -383 -218 -599 -396 -1061 -962 -1325 -1623 -66 -165 -142
-408 -165 -530 -3 -13 -11 -58 -20 -99 -29 -147 -36 -199 -52 -370 -15 -164
-8 -592 12 -711 2 -13 6 -46 9 -74 12 -104 35 -221 72 -370 26 -104 81 -289
94 -315 4 -8 25 -60 45 -115 62 -165 249 -531 312 -610 4 -6 34 -49 65 -95
190 -285 492 -596 793 -820 95 -71 290 -200 302 -200 3 0 14 -6 22 -14 29 -25
250 -136 389 -195 175 -75 452 -165 605 -197 101 -21 216 -41 277 -49 25 -3
56 -7 69 -10 135 -26 700 -26 839 0 16 3 104 15 147 20 166 21 466 104 697
191 168 64 475 214 562 276 6 5 62 42 125 84 253 169 465 353 661 574 41 47
78 87 81 90 3 3 43 55 89 115 95 125 185 260 258 387 47 80 182 351 182 364 0
3 8 24 19 47 53 118 147 417 177 562 16 77 54 301 60 350 4 33 9 76 11 95 8
71 10 517 3 595 -17 172 -22 220 -25 225 -2 3 -6 30 -10 60 -3 30 -10 71 -15
90 -5 19 -12 51 -15 70 -9 53 -62 261 -75 295 -7 17 -14 40 -16 52 -7 35 -93
260 -141 368 -451 1008 -1396 1771 -2468 1990 -44 9 -89 19 -100 21 -11 2 -38
6 -60 9 -22 3 -51 7 -65 10 -13 2 -52 7 -86 11 -33 3 -74 8 -90 10 -33 5 -540
14 -546 10z m382 -260 c189 -8 241 -14 447 -51 16 -3 42 -7 58 -10 56 -10 290
-74 365 -100 334 -114 680 -299 941 -501 272 -211 524 -478 708 -749 307 -453
501 -987 547 -1505 3 -41 8 -91 10 -110 5 -49 4 -364 -1 -425 -2 -27 -6 -77
-9 -110 -5 -62 -23 -192 -31 -229 -3 -12 -7 -32 -9 -46 -92 -519 -340 -1045
-694 -1474 -80 -96 -293 -313 -377 -383 -318 -266 -633 -451 -998 -587 -175
-65 -461 -139 -632 -162 -27 -4 -57 -8 -66 -9 -9 -2 -52 -6 -95 -10 -43 -4
-92 -9 -109 -11 -80 -10 -405 -4 -550 11 -547 57 -1097 264 -1541 581 -303
216 -599 518 -803 819 -251 370 -427 793 -506 1220 -22 123 -27 151 -40 270
-16 134 -21 426 -10 550 9 109 15 170 19 195 1 14 6 50 11 80 4 30 16 98 27
150 11 52 21 105 24 117 29 147 138 451 229 641 101 209 284 502 397 633 13
15 43 51 67 80 84 102 337 344 451 433 107 82 313 226 324 226 3 0 29 15 58
34 68 43 246 132 368 184 91 38 309 117 354 127 11 2 46 12 76 20 30 8 109 26
175 39 120 25 151 30 235 41 25 3 61 8 80 10 19 3 100 8 180 11 80 4 146 8
148 9 2 2 11 1 20 -1 9 -1 78 -5 152 -8z"/>
<path d="M3209 6125 c-498 -61 -942 -241 -1323 -534 -94 -73 -134 -108 -257
-231 -267 -266 -455 -555 -594 -915 -68 -175 -131 -416 -150 -575 -4 -30 -10
-82 -15 -115 -9 -62 -6 -501 3 -545 3 -14 8 -47 12 -73 3 -26 10 -71 16 -100
5 -29 12 -65 15 -82 29 -166 123 -434 222 -632 136 -272 279 -470 497 -689
214 -214 417 -361 685 -494 290 -145 537 -218 900 -267 112 -16 618 -7 649 11
3 2 29 6 56 10 28 3 100 17 160 31 946 215 1704 938 1960 1871 40 148 62 263
82 434 16 132 8 548 -12 650 -3 14 -7 34 -9 45 -2 11 -7 40 -11 65 -22 147
-106 413 -186 590 -185 414 -486 785 -852 1053 -220 161 -485 297 -732 377
-112 35 -316 86 -385 94 -50 7 -90 13 -135 22 -64 12 -491 12 -596 -1z m381
-680 c91 -11 213 -52 319 -106 56 -28 101 -55 101 -60 0 -4 8 -10 18 -14 11
-3 55 -40 98 -83 259 -252 357 -616 258 -959 -30 -103 -75 -200 -131 -280
l-44 -63 33 6 c18 3 47 9 63 13 36 9 243 7 300 -3 565 -99 921 -662 769 -1216
-8 -30 -19 -64 -24 -75 -95 -227 -239 -397 -426 -501 -336 -188 -749 -165
-1049 58 -69 51 -110 90 -179 168 l-48 55 6 -145 c3 -80 7 -156 10 -170 2 -14
7 -52 12 -85 4 -33 8 -62 9 -65 1 -3 5 -25 9 -50 11 -66 54 -225 81 -301 l23
-66 -316 1 c-257 1 -316 4 -320 15 -2 7 0 16 5 20 16 11 81 238 97 341 3 19 8
45 10 56 11 52 26 219 31 328 l5 120 -84 -90 c-196 -209 -439 -317 -716 -317
-479 0 -884 354 -955 833 -9 56 -9 218 -1 256 3 16 8 45 11 64 12 73 74 233
121 312 57 95 190 236 282 297 102 68 223 121 342 147 76 18 271 24 343 12 20
-3 37 -4 37 -1 0 2 -11 19 -24 36 -58 76 -136 252 -150 337 -3 19 -10 58 -15
85 -15 75 -5 267 18 360 42 168 117 306 233 431 217 232 513 337 838 299z"/>
</g>
</svg>
